<?xml version="1.0" encoding="UTF-8"?>
<svg width="200" height="300" viewBox="0 0 200 300" fill="none" xmlns="http://www.w3.org/2000/svg">
  <!-- Beer glass -->
  <path d="M60,60 L140,60 L130,250 L70,250 Z" fill="#f1f2f6" fill-opacity="0.5"/>
  <path d="M65,70 L135,70 L127,240 L73,240 Z" fill="#ffb142"/>
  
  <!-- Beer foam -->
  <path d="M65,70 C65,60 75,50 90,50 S115,55 120,50 S130,40 140,50 S135,60 135,70" fill="white"/>
  
  <!-- Glass shine/reflection -->
  <path d="M120,70 L115,240 L105,240 L110,70 Z" fill="white" fill-opacity="0.3"/>
  
  <!-- Beer bubbles -->
  <circle cx="90" cy="100" r="4" fill="white"/>
  <circle cx="100" cy="130" r="3" fill="white"/>
  <circle cx="85" cy="160" r="5" fill="white"/>
  <circle cx="110" cy="190" r="4" fill="white"/>
  <circle cx="95" cy="220" r="3" fill="white"/>
</svg>