<?xml version="1.0" encoding="UTF-8"?>
<svg width="200" height="300" viewBox="0 0 200 300" fill="none" xmlns="http://www.w3.org/2000/svg">
  <!-- Spirit bottle - rectangular with shoulders -->
  <path d="M70,20 L130,20 L130,60 L140,80 L140,250 L60,250 L60,80 L70,60 Z" fill="#f1f2f6" fill-opacity="0.5"/>
  <path d="M75,25 L125,25 L125,60 L135,80 L135,245 L65,245 L65,80 L75,60 Z" fill="#6c5ce7"/>
  
  <!-- Bottle neck -->
  <path d="M85,20 L115,20 L115,60 L85,60 Z" fill="#4834d4"/>
  
  <!-- Bottle cap -->
  <rect x="85" y="10" width="30" height="15" rx="2" fill="#a5b1c2"/>
  
  <!-- Bottle label -->
  <rect x="70" y="120" width="60" height="90" rx="5" fill="#f1f2f6"/>
  <rect x="80" y="130" width="40" height="15" rx="2" fill="#333"/>
  <rect x="80" y="155" width="40" height="5" rx="2" fill="#333"/>
  <rect x="80" y="165" width="40" height="5" rx="2" fill="#333"/>
  <rect x="80" y="175" width="40" height="5" rx="2" fill="#333"/>
  <rect x="80" y="185" width="40" height="5" rx="2" fill="#333"/>
  <rect x="80" y="195" width="30" height="5" rx="2" fill="#333"/>
  
  <!-- Bottle shine/reflection -->
  <path d="M120,80 L125,100 L125,240 L120,240 Z" fill="white" fill-opacity="0.3"/>
</svg>