<svg width="300" height="200" viewBox="0 0 300 200" fill="none" xmlns="http://www.w3.org/2000/svg">
  <rect width="300" height="200" fill="#F6D285"/>
  <path d="M165 50H135C131.688 50 129 52.6875 129 56V150C129 158.281 135.719 165 144 165H156C164.281 165 171 158.281 171 150V56C171 52.6875 168.312 50 165 50ZM163 150C163 153.875 159.875 157 156 157H144C140.125 157 137 153.875 137 150V84H163V150ZM163 76H137V58H163V76Z" fill="#8C6E3C"/>
  <path d="M145 118C145 118 147 123 155 123C163 123 165 118 165 118V108C165 108 163 113 155 113C147 113 145 108 145 108V118Z" fill="white"/>
  <path d="M180 95H173V150C173 159.406 165.406 167 156 167H144C134.594 167 127 159.406 127 150V95H120C117.812 95 116 93.1875 116 91V77C116 74.8125 117.812 73 120 73H127V56C127 51.5938 130.594 48 135 48H165C169.406 48 173 51.5938 173 56V73H180C182.188 73 184 74.8125 184 77V91C184 93.1875 182.188 95 180 95ZM176 81H173V103H176V81ZM124 81H127V103H124V81ZM165 56H135V101.562C137.188 105.156 143.188 107 150 107C156.812 107 162.812 105.156 165 101.562V56Z" fill="#8C6E3C"/>
</svg>