<svg width="300" height="200" viewBox="0 0 300 200" fill="none" xmlns="http://www.w3.org/2000/svg">
  <rect width="300" height="200" fill="#A7B9C7"/>
  <path d="M150 70C164.359 70 176 81.6406 176 96C176 110.359 164.359 122 150 122C135.641 122 124 110.359 124 96C124 81.6406 135.641 70 150 70ZM150 130C168.773 130 184 114.773 184 96C184 77.2266 168.773 62 150 62C131.227 62 116 77.2266 116 96C116 114.773 131.227 130 150 130Z" fill="white"/>
  <path d="M150 150C126.281 150 110 146.312 110 136V124.078C117.266 130.422 132.031 134 150 134C167.969 134 182.734 130.422 190 124.078V136C190 146.312 173.719 150 150 150ZM150 86C173.719 86 190 82.3125 190 72C190 61.6875 173.719 58 150 58C126.281 58 110 61.6875 110 72C110 82.3125 126.281 86 150 86ZM150 50C180.469 50 198 59.2188 198 72V136C198 148.781 180.469 158 150 158C119.531 158 102 148.781 102 136V72C102 59.2188 119.531 50 150 50Z" fill="white"/>
</svg>