<svg width="300" height="200" viewBox="0 0 300 200" fill="none" xmlns="http://www.w3.org/2000/svg">
  <rect width="300" height="200" fill="#E8C096"/>
  <path d="M125 68H175V150H125V68Z" fill="#A05B10"/>
  <path d="M128 75H172V143H128V75Z" fill="#D58D3F"/>
  <path d="M124 48H176V68H124V48Z" fill="#6E4417"/>
  <path d="M136 52C136 53.1046 135.105 54 134 54C132.895 54 132 53.1046 132 52C132 50.8954 132.895 50 134 50C135.105 50 136 50.8954 136 52Z" fill="#C2922C"/>
  <path d="M144 52C144 53.1046 143.105 54 142 54C140.895 54 140 53.1046 140 52C140 50.8954 140.895 50 142 50C143.105 50 144 50.8954 144 52Z" fill="#C2922C"/>
  <path d="M152 52C152 53.1046 151.105 54 150 54C148.895 54 148 53.1046 148 52C148 50.8954 148.895 50 150 50C151.105 50 152 50.8954 152 52Z" fill="#C2922C"/>
  <path d="M160 52C160 53.1046 159.105 54 158 54C156.895 54 156 53.1046 156 52C156 50.8954 156.895 50 158 50C159.105 50 160 50.8954 160 52Z" fill="#C2922C"/>
  <path d="M168 52C168 53.1046 167.105 54 166 54C164.895 54 164 53.1046 164 52C164 50.8954 164.895 50 166 50C167.105 50 168 50.8954 168 52Z" fill="#C2922C"/>
  <path d="M118 150H182V158H118V150Z" fill="#6E4417"/>
</svg>