<svg width="300" height="200" viewBox="0 0 300 200" fill="none" xmlns="http://www.w3.org/2000/svg">
  <rect width="300" height="200" fill="#E5C0C8"/>
  <path d="M142 160H158V140.078C158 139.883 158 139.688 158 139.492C149.734 138.711 143 131.445 143 122.5V90.3125C143 89.7266 143 89.1406 143.195 88.5547L158.781 50H141.219L156.805 88.5547C157 89.1406 157 89.7266 157 90.3125V122.5C157 127.578 153.078 131.5 148 131.5C142.922 131.5 139 127.578 139 122.5V90.3125C139 89.7266 139 89.1406 139.195 88.5547L154.781 50H137.219L152.805 88.5547C153 89.1406 153 89.7266 153 90.3125V122.5C153 131.445 146.266 138.711 138 139.492C138 139.688 138 139.883 138 140.078V160H142ZM142 166V170H158V166H142ZM169 50H169.195L169 50.3906V50H169ZM171 55.0781L155.609 93.2422C155.414 93.8281 155.219 94.2188 155.219 94.8047V127.188C163.289 124.633 169 117.227 169 108.5V76.1172C169 75.3359 169.195 74.75 169.391 74.1641L171 55.0781ZM129.414 94.8047C129.414 94.2188 129.219 93.8281 129.023 93.2422L114.805 57.6328L116.609 74.1641C116.805 74.75 117 75.3359 117 76.1172V108.305C117 116.836 122.516 124.047 130.391 126.797V94.8047H129.414ZM175.578 50L177 57.6328L162.781 93.2422C162.586 93.8281 162.391 94.2188 162.391 94.8047V126.797C171.234 123.656 177 115.664 177 106.547V76.1172C177 75.3359 177.195 74.75 177.391 74.1641L180 50H175.578ZM130.781 50H126.359L124.367 66.3594C124.172 66.9453 124 67.5312 124 68.3125V98.7422C124 108.695 132.766 117.031 143 117.227V94.8047C143 94.2188 142.805 93.8281 142.609 93.2422L129.609 63.2969L130.781 50Z" fill="#77001F"/>
</svg>